<svg xmlns="http://www.w3.org/2000/svg" xmlns:xlink="http://www.w3.org/1999/xlink" xmlns:fi="http://pattern.flaticon.com/" x="0" y="0" width="710" height="355" viewBox="0 0 710 355"><rect x="0px" y="0px" width="100%" height="100%" opacity="1" fill="#ffffff"/><defs><g transform="matrix(0.14495274424552917 0 0 0.14495274424552917 280.0000005662214 11)" id="L1_28"><path d="M244.873,161.937c6.655,0,12.045,5.392,12.045,12.044c0,6.65-5.39,12.04-12.045,12.04c-6.649,0-12.044-5.389-12.044-12.04    C232.829,167.328,238.223,161.937,244.873,161.937z"/><path d="M371.029,339.641c-8.379-15.763-17.871-33.634-17.871-61.678c0-46.918,26.024-63.424,27.084-64.072    c3.85-2.278,5.115-7.246,2.837-11.096c-2.283-3.857-7.256-5.121-11.101-2.843c-1.429,0.85-35.021,21.39-35.021,78.011    c0,32.083,10.958,52.708,19.76,69.282c6.312,11.865,11.29,21.246,11.29,31.968c0,7.683-1.672,13.23-4.83,16.062    c-3.217,2.879-7.42,2.452-7.499,2.452c-0.385-0.058-0.78-0.084-1.171-0.084h-29.815c3.47-5.432,5.516-11.855,5.516-18.769V13.703    c0-3.636-2.426-6.827-5.933-7.805c-3.496-0.986-7.225,0.503-9.107,3.615l-39.562,65.485c-12.139-0.231-47.809-0.509-154.588-0.509    c-22.673,0-33.895,0.016-39.564,0.056L45.009,4.371c-1.724-3.317-5.508-5.028-9.109-4.137c-3.631,0.886-6.184,4.137-6.184,7.868    v370.762c0,19.28,15.681,34.969,34.966,34.969H188.46h106.784h58.82c0.532,0.047,1.286,0.095,2.225,0.095    c3.961,0,11.085-0.881,17.36-6.297c7.003-6.054,10.558-15.614,10.558-28.429C384.208,364.452,377.811,352.397,371.029,339.641z     M115.041,202.22c-15.572,0-28.242-12.667-28.242-28.239c0-15.575,12.675-28.244,28.242-28.244    c15.57,0,28.242,12.669,28.242,28.244C143.283,189.553,130.616,202.22,115.041,202.22z M194.134,234.763h-5.982l-0.654,11.253    c-0.248,4.304-3.818,7.631-8.079,7.631c-0.156,0-0.316-0.005-0.475-0.011c-4.464-0.264-7.878-4.097-7.612-8.554l0.599-10.314    h-6.146c-4.47,0-8.101-3.623-8.101-8.1c0-4.478,3.631-8.101,8.101-8.101h28.35c4.472,0,8.1,3.623,8.1,8.101    C202.234,231.145,198.606,234.763,194.134,234.763z M244.873,202.22c-15.572,0-28.244-12.667-28.244-28.239    c0-15.575,12.677-28.244,28.244-28.244c15.578,0,28.255,12.669,28.255,28.244C273.127,189.553,260.451,202.22,244.873,202.22z"/><circle cx="115" cy="173" r="12"/></g><g transform="matrix(0.1171875 0 0 0.1171875 109 11)" id="L1_29"><path d="m201.615 393.007c8.821 0 17.866-1.892 26.463-3.689 24.868-5.2 30.921-5.212 55.849 0 22.034 4.607 47.011 9.831 63.623-17.755 22.508-37.381-4.463-77.088-32.716-77.088-10.456 0-15.226-4.564-21.827-10.88-7.695-7.362-17.271-16.525-37.005-16.525s-29.31 9.163-37.005 16.525c-6.601 6.317-11.37 10.88-21.827 10.88-28.094 0-55.327 39.535-32.715 77.088 10.13 16.823 23.371 21.444 37.16 21.444zm-4.445-83.531c16.478 0 24.83-7.992 32.198-15.043 6.933-6.634 12.92-12.363 26.633-12.363s19.701 5.729 26.633 12.363c7.369 7.051 15.721 15.043 32.198 15.043 16.524 0 36.368 26.938 19.864 54.348-10.621 17.638-23.661 15.836-47.7 10.809-26.92-5.628-34.962-5.651-61.99 0-24.04 5.028-37.08 6.829-47.7-10.809-16.606-27.579 3.551-54.348 19.864-54.348z"/><path d="m247.756 225.66c0-16.519-11.308-29.959-25.207-29.959s-25.207 13.44-25.207 29.959 11.308 29.958 25.207 29.958 25.207-13.439 25.207-29.958zm-35.413 0c0-8.108 4.674-14.957 10.206-14.957s10.206 6.849 10.206 14.957c0 8.107-4.674 14.957-10.206 14.957s-10.206-6.849-10.206-14.957z"/><path d="m191.751 249.522c-4.152-16.757-18.638-26.248-31.674-23.016-13.491 3.344-21.234 19.108-17.261 35.143 3.47 13.999 14.738 23.645 26.521 23.644 15.879-.005 27.078-16.951 22.414-35.771zm-34.373 8.518c-2.893-11.677 4.793-21.824 13.639-14.956 9.614 7.465 8.388 24.907-.135 27.019-5.372 1.329-11.554-4.194-13.504-12.063z"/><path d="m314.663 225.66c0-16.519-11.308-29.959-25.207-29.959-13.9 0-25.207 13.44-25.207 29.959s11.308 29.958 25.207 29.958c13.899.001 25.207-13.439 25.207-29.958zm-35.412 0c0-8.108 4.674-14.957 10.206-14.957s10.205 6.849 10.205 14.957c0 8.107-4.673 14.957-10.205 14.957s-10.206-6.849-10.206-14.957z"/><path d="m367.528 240.092c-3.146-6.957-8.832-11.909-15.6-13.586-13.49-3.346-27.7 6.981-31.674 23.015-4.685 18.907 6.605 35.772 22.413 35.772 20.01 0 33.686-25.685 24.861-45.201zm-12.901 17.948c-2.893 11.673-14.431 17.06-19.044 6.856-4.932-10.905 3.975-25.997 12.736-23.829 3.122.774 4.811 3.594 5.54 5.207 1.513 3.344 1.792 7.632.768 11.766z"/><path d="m256.002 87.65c-32.536-29.759-70.367-45.938-109.825-46.885-38.197-.921-74.312 12.661-101.711 38.233-3.029 2.826-3.192 7.573-.366 10.601 2.827 3.03 7.574 3.192 10.601.366 46.357-43.266 128.588-52.566 196.058 13.372 2.915 2.848 7.571 2.848 10.486 0 117.745-115.069 288.766-5.172 219.888 150.594-15.671 35.44-42.307 70.478-79.274 104.32v-39.057c0-4.143-3.358-7.501-7.501-7.501s-7.501 3.358-7.501 7.501v52.246c-34.534 29.201-76.889 57.316-125.954 83.602-3.068 1.643-6.734 1.643-9.8.002-49.068-26.288-91.423-54.403-125.957-83.604v-198.498c0-7.24 2.816-14.039 7.938-19.153 16.965-16.993 46.238-4.861 46.238 19.153 0 4.143 3.358 7.501 7.501 7.501s7.501-3.358 7.501-7.501c0-7.24 2.816-14.039 7.935-19.149 17.022-17.025 46.242-4.813 46.242 19.149 0 4.143 3.358 7.501 7.501 7.501s7.501-3.358 7.501-7.501c0-7.24 2.816-14.039 7.934-19.149 16.906-16.906 46.242-5.062 46.242 19.149 0 4.143 3.358 7.501 7.501 7.501s7.501-3.358 7.501-7.501c0-7.24 2.816-14.039 7.935-19.149 16.883-16.886 46.242-5.102 46.242 19.149v116.248c0 4.143 3.358 7.501 7.501 7.501s7.501-3.358 7.501-7.501v-116.248c0-23.206-18.879-42.085-42.085-42.085-14.144 0-26.835 6.941-34.61 18.106-16.692-23.988-52.277-24.263-69.179.001-16.684-23.975-52.263-24.281-69.178 0-15.025-21.591-45.829-24.314-64.33-5.783-7.954 7.942-12.332 18.512-12.332 29.761v185.297c-47.352-43.433-78.326-89.754-89.927-134.699-10.564-40.929-4.848-80.692 16.095-111.963 2.305-3.442 1.384-8.101-2.058-10.406-3.441-2.305-8.102-1.384-10.406 2.058-32.804 48.98-35.899 121.371 17.021 199.034 47.933 70.346 128.217 125.86 203.151 166.006 7.503 4.015 16.459 4.014 23.964-.002 87.61-46.937 186.642-117.301 226.867-208.269 16.204-36.644 21.046-73.777 14.004-107.386-22.179-105.858-154.575-154.893-252.855-64.962z"/></g><g transform="matrix(0.14495274424552917 0 0 0.14495274424552917 112.00000056622162 179)" id="L1_30"><path d="M244.873,161.937c6.655,0,12.045,5.392,12.045,12.044c0,6.65-5.39,12.04-12.045,12.04c-6.649,0-12.044-5.389-12.044-12.04    C232.829,167.328,238.223,161.937,244.873,161.937z"/><path d="M371.029,339.641c-8.379-15.763-17.871-33.634-17.871-61.678c0-46.918,26.024-63.424,27.084-64.072    c3.85-2.278,5.115-7.246,2.837-11.096c-2.283-3.857-7.256-5.121-11.101-2.843c-1.429,0.85-35.021,21.39-35.021,78.011    c0,32.083,10.958,52.708,19.76,69.282c6.312,11.865,11.29,21.246,11.29,31.968c0,7.683-1.672,13.23-4.83,16.062    c-3.217,2.879-7.42,2.452-7.499,2.452c-0.385-0.058-0.78-0.084-1.171-0.084h-29.815c3.47-5.432,5.516-11.855,5.516-18.769V13.703    c0-3.636-2.426-6.827-5.933-7.805c-3.496-0.986-7.225,0.503-9.107,3.615l-39.562,65.485c-12.139-0.231-47.809-0.509-154.588-0.509    c-22.673,0-33.895,0.016-39.564,0.056L45.009,4.371c-1.724-3.317-5.508-5.028-9.109-4.137c-3.631,0.886-6.184,4.137-6.184,7.868    v370.762c0,19.28,15.681,34.969,34.966,34.969H188.46h106.784h58.82c0.532,0.047,1.286,0.095,2.225,0.095    c3.961,0,11.085-0.881,17.36-6.297c7.003-6.054,10.558-15.614,10.558-28.429C384.208,364.452,377.811,352.397,371.029,339.641z     M115.041,202.22c-15.572,0-28.242-12.667-28.242-28.239c0-15.575,12.675-28.244,28.242-28.244    c15.57,0,28.242,12.669,28.242,28.244C143.283,189.553,130.616,202.22,115.041,202.22z M194.134,234.763h-5.982l-0.654,11.253    c-0.248,4.304-3.818,7.631-8.079,7.631c-0.156,0-0.316-0.005-0.475-0.011c-4.464-0.264-7.878-4.097-7.612-8.554l0.599-10.314    h-6.146c-4.47,0-8.101-3.623-8.101-8.1c0-4.478,3.631-8.101,8.101-8.101h28.35c4.472,0,8.1,3.623,8.1,8.101    C202.234,231.145,198.606,234.763,194.134,234.763z M244.873,202.22c-15.572,0-28.244-12.667-28.244-28.239    c0-15.575,12.677-28.244,28.244-28.244c15.578,0,28.255,12.669,28.255,28.244C273.127,189.553,260.451,202.22,244.873,202.22z"/><circle cx="115" cy="173" r="12"/></g><g transform="matrix(0.1171875 0 0 0.1171875 279 184)" id="L1_31"><path d="m201.615 393.007c8.821 0 17.866-1.892 26.463-3.689 24.868-5.2 30.921-5.212 55.849 0 22.034 4.607 47.011 9.831 63.623-17.755 22.508-37.381-4.463-77.088-32.716-77.088-10.456 0-15.226-4.564-21.827-10.88-7.695-7.362-17.271-16.525-37.005-16.525s-29.31 9.163-37.005 16.525c-6.601 6.317-11.37 10.88-21.827 10.88-28.094 0-55.327 39.535-32.715 77.088 10.13 16.823 23.371 21.444 37.16 21.444zm-4.445-83.531c16.478 0 24.83-7.992 32.198-15.043 6.933-6.634 12.92-12.363 26.633-12.363s19.701 5.729 26.633 12.363c7.369 7.051 15.721 15.043 32.198 15.043 16.524 0 36.368 26.938 19.864 54.348-10.621 17.638-23.661 15.836-47.7 10.809-26.92-5.628-34.962-5.651-61.99 0-24.04 5.028-37.08 6.829-47.7-10.809-16.606-27.579 3.551-54.348 19.864-54.348z"/><path d="m247.756 225.66c0-16.519-11.308-29.959-25.207-29.959s-25.207 13.44-25.207 29.959 11.308 29.958 25.207 29.958 25.207-13.439 25.207-29.958zm-35.413 0c0-8.108 4.674-14.957 10.206-14.957s10.206 6.849 10.206 14.957c0 8.107-4.674 14.957-10.206 14.957s-10.206-6.849-10.206-14.957z"/><path d="m191.751 249.522c-4.152-16.757-18.638-26.248-31.674-23.016-13.491 3.344-21.234 19.108-17.261 35.143 3.47 13.999 14.738 23.645 26.521 23.644 15.879-.005 27.078-16.951 22.414-35.771zm-34.373 8.518c-2.893-11.677 4.793-21.824 13.639-14.956 9.614 7.465 8.388 24.907-.135 27.019-5.372 1.329-11.554-4.194-13.504-12.063z"/><path d="m314.663 225.66c0-16.519-11.308-29.959-25.207-29.959-13.9 0-25.207 13.44-25.207 29.959s11.308 29.958 25.207 29.958c13.899.001 25.207-13.439 25.207-29.958zm-35.412 0c0-8.108 4.674-14.957 10.206-14.957s10.205 6.849 10.205 14.957c0 8.107-4.673 14.957-10.205 14.957s-10.206-6.849-10.206-14.957z"/><path d="m367.528 240.092c-3.146-6.957-8.832-11.909-15.6-13.586-13.49-3.346-27.7 6.981-31.674 23.015-4.685 18.907 6.605 35.772 22.413 35.772 20.01 0 33.686-25.685 24.861-45.201zm-12.901 17.948c-2.893 11.673-14.431 17.06-19.044 6.856-4.932-10.905 3.975-25.997 12.736-23.829 3.122.774 4.811 3.594 5.54 5.207 1.513 3.344 1.792 7.632.768 11.766z"/><path d="m256.002 87.65c-32.536-29.759-70.367-45.938-109.825-46.885-38.197-.921-74.312 12.661-101.711 38.233-3.029 2.826-3.192 7.573-.366 10.601 2.827 3.03 7.574 3.192 10.601.366 46.357-43.266 128.588-52.566 196.058 13.372 2.915 2.848 7.571 2.848 10.486 0 117.745-115.069 288.766-5.172 219.888 150.594-15.671 35.44-42.307 70.478-79.274 104.32v-39.057c0-4.143-3.358-7.501-7.501-7.501s-7.501 3.358-7.501 7.501v52.246c-34.534 29.201-76.889 57.316-125.954 83.602-3.068 1.643-6.734 1.643-9.8.002-49.068-26.288-91.423-54.403-125.957-83.604v-198.498c0-7.24 2.816-14.039 7.938-19.153 16.965-16.993 46.238-4.861 46.238 19.153 0 4.143 3.358 7.501 7.501 7.501s7.501-3.358 7.501-7.501c0-7.24 2.816-14.039 7.935-19.149 17.022-17.025 46.242-4.813 46.242 19.149 0 4.143 3.358 7.501 7.501 7.501s7.501-3.358 7.501-7.501c0-7.24 2.816-14.039 7.934-19.149 16.906-16.906 46.242-5.062 46.242 19.149 0 4.143 3.358 7.501 7.501 7.501s7.501-3.358 7.501-7.501c0-7.24 2.816-14.039 7.935-19.149 16.883-16.886 46.242-5.102 46.242 19.149v116.248c0 4.143 3.358 7.501 7.501 7.501s7.501-3.358 7.501-7.501v-116.248c0-23.206-18.879-42.085-42.085-42.085-14.144 0-26.835 6.941-34.61 18.106-16.692-23.988-52.277-24.263-69.179.001-16.684-23.975-52.263-24.281-69.178 0-15.025-21.591-45.829-24.314-64.33-5.783-7.954 7.942-12.332 18.512-12.332 29.761v185.297c-47.352-43.433-78.326-89.754-89.927-134.699-10.564-40.929-4.848-80.692 16.095-111.963 2.305-3.442 1.384-8.101-2.058-10.406-3.441-2.305-8.102-1.384-10.406 2.058-32.804 48.98-35.899 121.371 17.021 199.034 47.933 70.346 128.217 125.86 203.151 166.006 7.503 4.015 16.459 4.014 23.964-.002 87.61-46.937 186.642-117.301 226.867-208.269 16.204-36.644 21.046-73.777 14.004-107.386-22.179-105.858-154.575-154.893-252.855-64.962z"/></g></defs><g fi:class="KUsePattern"><pattern id="pattern_L1_28" width="350" height="350" patternUnits="userSpaceOnUse"><use xlink:href="#L1_28" x="-350" y="-350"/><use xlink:href="#L1_28" x="0" y="-350"/><use xlink:href="#L1_28" x="350" y="-350"/><use xlink:href="#L1_28" x="-350" y="0"/><use xlink:href="#L1_28" x="0" y="0"/><use xlink:href="#L1_28" x="350" y="0"/><use xlink:href="#L1_28" x="-350" y="350"/><use xlink:href="#L1_28" x="0" y="350"/><use xlink:href="#L1_28" x="350" y="350"/></pattern><rect x="0" y="0" width="100%" height="100%" fill="url(#pattern_L1_28)"/></g><g fi:class="KUsePattern"><pattern id="pattern_L1_29" width="350" height="350" patternUnits="userSpaceOnUse"><use xlink:href="#L1_29" x="-350" y="-350"/><use xlink:href="#L1_29" x="0" y="-350"/><use xlink:href="#L1_29" x="350" y="-350"/><use xlink:href="#L1_29" x="-350" y="0"/><use xlink:href="#L1_29" x="0" y="0"/><use xlink:href="#L1_29" x="350" y="0"/><use xlink:href="#L1_29" x="-350" y="350"/><use xlink:href="#L1_29" x="0" y="350"/><use xlink:href="#L1_29" x="350" y="350"/></pattern><rect x="0" y="0" width="100%" height="100%" fill="url(#pattern_L1_29)"/></g><g fi:class="KUsePattern"><pattern id="pattern_L1_30" width="350" height="350" patternUnits="userSpaceOnUse"><use xlink:href="#L1_30" x="-350" y="-350"/><use xlink:href="#L1_30" x="0" y="-350"/><use xlink:href="#L1_30" x="350" y="-350"/><use xlink:href="#L1_30" x="-350" y="0"/><use xlink:href="#L1_30" x="0" y="0"/><use xlink:href="#L1_30" x="350" y="0"/><use xlink:href="#L1_30" x="-350" y="350"/><use xlink:href="#L1_30" x="0" y="350"/><use xlink:href="#L1_30" x="350" y="350"/></pattern><rect x="0" y="0" width="100%" height="100%" fill="url(#pattern_L1_30)"/></g><g fi:class="KUsePattern"><pattern id="pattern_L1_31" width="350" height="350" patternUnits="userSpaceOnUse"><use xlink:href="#L1_31" x="-350" y="-350"/><use xlink:href="#L1_31" x="0" y="-350"/><use xlink:href="#L1_31" x="350" y="-350"/><use xlink:href="#L1_31" x="-350" y="0"/><use xlink:href="#L1_31" x="0" y="0"/><use xlink:href="#L1_31" x="350" y="0"/><use xlink:href="#L1_31" x="-350" y="350"/><use xlink:href="#L1_31" x="0" y="350"/><use xlink:href="#L1_31" x="350" y="350"/></pattern><rect x="0" y="0" width="100%" height="100%" fill="url(#pattern_L1_31)"/></g></svg>